<?xml version="1.0" encoding="UTF-8" standalone="no"?>
<!-- Created with Inkscape (http://www.inkscape.org/) -->

<svg
   version="1.1"
   id="svg2"
   width="405.58667"
   height="405.57333"
   viewBox="0 0 405.58667 405.57333"
   sodipodi:docname="merge2.eps"
   xmlns:inkscape="http://www.inkscape.org/namespaces/inkscape"
   xmlns:sodipodi="http://sodipodi.sourceforge.net/DTD/sodipodi-0.dtd"
   xmlns="http://www.w3.org/2000/svg"
   xmlns:svg="http://www.w3.org/2000/svg">
  <defs
     id="defs6" />
  <sodipodi:namedview
     id="namedview4"
     pagecolor="#ffffff"
     bordercolor="#000000"
     borderopacity="0.25"
     inkscape:showpageshadow="2"
     inkscape:pageopacity="0.0"
     inkscape:pagecheckerboard="0"
     inkscape:deskcolor="#d1d1d1" />
  <g
     id="g8"
     inkscape:groupmode="layer"
     inkscape:label="ink_ext_XXXXXX"
     transform="matrix(1.3333333,0,0,-1.3333333,0,405.57333)">
    <g
       id="g10"
       transform="scale(0.1)">
      <path
         d="m 33.0859,1600.47 c -44.1211,-44.08 -44.1211,-115.2 0,-159.2 L 1441.33,32.9883 c 44,-43.9844 115.25,-43.9844 159.24,0 L 3008.81,1441.27 c 44.14,43.94 44.14,115.12 0.14,159.1 L 1600.57,3008.83 c -43.99,43.92 -115.24,43.92 -159.24,0"
         style="fill:#f7d51f;fill-opacity:1;fill-rule:evenodd;stroke:none"
         id="path12" />
      <path
         d="M 53.2227,1579.67 1461.72,2988.18 c 32.28,32.29 84.84,32.29 117.13,0 L 2987.36,1579.67 c 32.31,-32.29 32.31,-84.85 0,-117.13 L 1578.85,54.0039 c -32.29,-32.2851 -84.85,-32.2851 -117.13,0 L 53.2227,1462.54 c -32.3243,32.28 -32.3243,84.84 0,117.13 m 31.5234,-30.78 c -15.7813,-15.78 -15.7813,-39.81 0,-55.55 L 1492.52,85.5664 c 15.74,-15.0391 39.77,-15.0391 54.8,0 L 2955.84,1493.34 c 15.02,15.74 15.02,39.77 0,54.79 L 1547.32,2956.66 c -15.03,15 -39.06,15 -54.8,0 L 84.7461,1548.89"
         style="fill:#261c1d;fill-opacity:1;fill-rule:evenodd;stroke:none"
         id="path14" />
      <path
         d="m 1685.88,1826.99 v -71.19 c 0.04,-263.01 209.67,-471.74 394.69,-681.87 L 1911.25,904.902 C 1808.34,1012.71 1715.37,1122.11 1685.88,1161.48 V 695.137 l -329.26,-0.157 0.31,1130.72 -176.29,-54.04 c -73.65,-27.05 -118.63,41.8 -93.47,92.85 l 432.22,632.27 436.02,-632.27 c 25.08,-51.05 -19.84,-119.9 -93.5,-92.85"
         style="fill:#261c1d;fill-opacity:1;fill-rule:evenodd;stroke:none"
         id="path16" />
    </g>
  </g>
</svg>
